DataType=double
version=3
OpenSimVersion=4.5
endheader
time	ground_force_2_vx	ground_force_2_vy	ground_force_2_vz	ground_force_2_px	ground_force_2_py	ground_force_2_pz	ground_moment_2_mx	ground_moment_2_my	ground_moment_2_mz	ground_force_1_vx	ground_force_1_vy	ground_force_1_vz	ground_force_1_px	ground_force_1_py	ground_force_1_pz	ground_moment_1_mx	ground_moment_1_my	ground_moment_1_mz
2.495	-54.5926974304686	609.2462639799306	-46.11785868032632	0.8622839721702564	0.01038340430110678	0.563306451821982	0	-1.152289744301646	0	0.2345991008786134	-1.437935897731734	0.1111921086352972	0.6771191020884778	0.01038340430110678	0.4195719398949601	0	0.00127819807176599	0
2.5	-51.98558598410575	601.4849854998024	-45.01927258164467	0.858991291220124	0.01038340430110678	0.5631343551588305	0	-0.9727615365713159	0	0.2973050292581124	-1.069005596962995	0.1019303735878268	0.6879345160236124	0.01038340430110678	0.419490400466511	0	0.001334115629275101	0
2.505	-49.46840580323813	594.8343171627974	-43.86629390336125	0.8555205479657099	0.01038340430110678	0.562953982648459	0	-0.7923158106987033	0	0.3393828810324988	-0.7583116199410824	0.09117287995340462	0.6988902920050777	0.01038340430110678	0.4193302130514215	0	0.001334019525145114	0
2.51	-47.04756551230863	589.2956414666239	-42.67494026054671	0.8518727668147479	0.01038340430110678	0.5627668333680577	0	-0.6118438845457463	0	0.3636672114666223	-0.4982192171069642	0.07955948709445693	0.709984693328619	0.01038340430110678	0.4190875558591493	0	0.001275100197909884	0
2.515	-44.72696790268844	584.8557477087613	-41.46236360001112	0.8480504160651459	0.01038340430110678	0.5625743178547131	0	-0.4323178488120962	0	0.3728239021518698	-0.2809548820355872	0.06761590318732047	0.7212163827810714	0.01038340430110678	0.4187592336601532	0	0.001155816599532122	0
2.52	-42.5074665236327	581.4889413677273	-40.24591819664138	0.8440571178252875	0.01038340430110678	0.5623777927052276	0	-0.2547892393545652	0	0.3693139242918859	-0.09893159331454626	0.05576707189822372	0.7325841531581599	0.01038340430110678	0.4183427408734957	0	0.0009758542804937376	0
2.525	-40.38649845239336	579.1588933483762	-39.04221452097153	0.8398974347951166	0.01038340430110678	0.562178608227524	0	-0.08037279712008782	0	0.3553750801280987	0.05498577828780071	0.04435090593829472	0.7440866417816739	0.01038340430110678	0.4178363211509102	0	0.0007361212965564246	0
2.53	-38.35795216428202	577.820224686722	-37.86627777333768	0.835576726904766	0.01038340430110678	0.561978159305215	0	0.08978247751505622	0	0.33301850481165	0.187265659769821	0.03363186634276971	0.7557220340208389	0.01038340430110678	0.4172390220481952	0	0.00043878863795066	0
2.535	-36.41229060571577	577.4198494226328	-36.73090705520985	0.8311010651731577	0.01038340430110678	0.5617779317046923	0	0.2545313342383297	0	0.3040370143593577	0.3035367786461052	0.02381401735897981	0.7674877613555862	0.01038340430110678	0.4165507436067083	0	8.738263972152271e-05	0
2.54	-34.53692040424134	577.8981273321833	-35.64629524634542	0.8264771862438425	0.01038340430110678	0.5615795388510861	0	0.4127750489195627	0	0.2700227145279824	0.408448862711225	0.01505328830764441	0.779380199913831	0.01038340430110678	0.4157722798344735	0	-0.0003130638904804695	0
2.545	-32.71677494999276	579.189898130042	-34.61993039200529	0.8217124692163343	0.01038340430110678	0.5613847463270002	0	0.5635046141933614	0	0.2323916157617384	0.5055597819250579	0.007468749856528234	0.7913943756598939	0.01038340430110678	0.4149053521704158	0	-0.0007557969120065566	0
2.55	-30.93505759948373	581.2254704126856	-33.65676216860355	0.8168149176577286	0.01038340430110678	0.5611954824646673	0	0.7058403753860928	0	0.1924133120971483	0.5972429089551383	0.001152766886416856	0.8035236824937507	0.01038340430110678	0.4139526340427545	0	-0.001232060473058127	0
2.555	-29.17407326603986	583.9316244467851	-32.75958572530398	0.8117931335752694	0.01038340430110678	0.5610138336916459	0	0.8390648255670627	0	0.1512440647565875	0.6846096522961602	-0.00382007462362921	0.8157596194255851	0.01038340430110678	0.4129177656125959	0	-0.001730751246285966	0
2.56	-27.41606616309497	587.2326672613481	-31.92957331770967	0.806656274900591	0.01038340430110678	0.5608420234512458	0	0.9626461275408857	0	0.1099618739670533	0.7674434238567187	-0.007385351742339452	0.8280915527004897	0.01038340430110678	0.4118053577558337	0	-0.002238013645928127	0
2.565	-25.64398145145701	591.0515591169155	-31.16687310259009	0.8014139921040968	0.01038340430110678	0.5606823740683304	0	1.07625090320427	0	0.06960228924859907	0.844142828518784	-0.009482579757168708	0.8405065082491371	0.01038340430110678	0.4106209843174882	0	-0.002736786285613357	0
2.57	-23.84207937598404	595.3111143477763	-30.47119359180319	0.7960763424061716	0.01038340430110678	0.5605372519430531	0	1.179745902427764	0	0.03119338279929806	0.9116750041696946	-0.0100504217020827	0.8529889991216	0.01038340430110678	0.4093711617125154	0	-0.003206322443240261	0
2.575	-21.99634892760419	599.9352646476655	-29.84230337151973	0.7906536820402059	0.01038340430110678	0.5604089977382161	0	1.273189176389849	0	-0.004215160471975898	0.9655538483831378	-0.009023040850060227	0.8655208916207509	0.01038340430110678	0.4080633150837434	0	-0.003621770708570171	0
2.58	-20.09469027514529	604.8503561863708	-29.28039986838677	0.7851565387656189	0.01038340430110678	0.5602998445932784	0	1.356812053533718	0	-0.03554803009422614	0.999908054314858	-0.006325968427503881	0.878081312697047	0.01038340430110678	0.4067057304911279	0	-0.003954308315875621	0
2.585	-18.12686381525804	609.9864329319496	-28.78632764712241	0.7795954687280446	0.01038340430110678	0.5602118287137454	0	1.430993601224509	0	-0.0617715762581289	1.007797903191715	-0.001867509434973158	0.8906465998200175	0.01038340430110678	0.4053074930141189	0	-0.004173650573329746	0
2.59	-16.08424225181147	615.278441809733	-28.36164440297189	0.7739809037254297	0.01038340430110678	0.5601466976547487	0	1.496229642408626	0	-0.08206477150611691	0.9818939734752803	0.004476511568576313	0.9031902930415627	0.01038340430110678	0.4038784112001766	0	-0.004255103989464271	0
2.595	-13.95943501073282	620.6672891864101	-28.00854197643454	0.7683229963433368	0.01038340430110678	0.5601058217717045	0	1.553098666308348	0	-0.09600428666291705	0.9152160128585933	0.01287560076738714	0.9156831673682558	0.01038340430110678	0.4024289289665207	0	-0.004188419904200824	0
2.6	-11.74586321971292	626.1006858614205	-27.72963685658311	0.7626314706734548	0.01038340430110678	0.5600901135367948	0	1.602226854496039	0	-0.1035803867040629	0.8013119096742685	0.02353862508326188	0.9280933019390151	0.01038340430110678	0.4009700268169649	0	-0.003980317398160849	0
2.605	-9.437357800853375	631.5337328988321	-27.52765403505481	0.7569154855088566	0.01038340430110678	0.5600999582582169	0	1.644254023708502	0	-0.1050049972304975	0.633752190571613	0.03668663153045415	0.9403861809541167	0.01038340430110678	0.399513115009814	0	-0.003647764411452648	0
2.61	-7.027845163266261	636.9292156371462	-27.40503640992779	0.7511835155771691	0.01038340430110678	0.5601351587706157	0	1.679801786550402	0	-0.1004853970113683	0.4055405175791975	0.05252008338094782	0.9525248199318113	0.01038340430110678	0.3980699220301596	0	-0.003208992844004888	0
2.615	-4.511171086039198	642.2575863901642	-27.36351612777133	0.7454432549384559	0.01038340430110678	0.5601948959869817	0	1.709444771506904	0	-0.0901089064235544	0.1089452878719044	0.07119232861507285	0.964469909803612	0.01038340430110678	0.3966523822964407	0	-0.002678847082723035	0
2.62	-1.881093893082477	647.4966287900127	-27.40368673052508	0.739701545293413	0.01038340430110678	0.5602777066751717	0	1.733685403333431	0	-0.07382388444112165	-0.2642882798533037	0.09278720185976397	0.9761799707314965	0.01038340430110678	0.3952725273834539	0	-0.002068096439982625	0
2.625	0.8685422733552226	652.6308086942477	-27.52461593562324	0.7339643306914898	0.01038340430110678	0.5603814793666582	0	1.752932564622218	0	-0.05145441868381639	-0.722549237089197	0.1172951679997674	0.987611507476433	0.01038340430110678	0.3939423850985156	0	-0.001384034362969411	0
2.63	3.743463390511389	657.6503280726806	-27.72353693948535	0.7282366390117198	0.01038340430110678	0.5605034688826848	0	1.7674844001923	0	-0.0227243276323138	-1.273868265583815	0.1445859194473655	0.9987191588004325	0.01038340430110678	0.3926738904492945	0	-0.0006312818650239249	0
2.635	6.748480394953656	662.549909755841	-27.99565132745721	0.7225225895545841	0.01038340430110678	0.56064032952472	0	1.777515535225495	0	0.01271147310704068	-1.925318263437589	0.1743772908203454	1.009455834863094	0.01038340430110678	0.3914788118618479	0	0.0001873197632843437	0
2.64	9.886913333525719	667.3273531252518	-28.33406920870047	0.7168254250341928	0.01038340430110678	0.5607881664673379	0	1.783069033072985	0	0.055227749793959	-2.682297743377262	0.2062006880206297	1.019772838976707	0.01038340430110678	0.3903686949465256	0	0.001069734704166825	0
2.645	13.15999619431192	671.9819144441867	-28.72990237045731	0.7111475651081632	0.01038340430110678	0.560942604268398	0	1.784053501866484	0	0.1051813667851358	-3.547688151429554	0.2393634209806486	1.02961997348101	0.01038340430110678	0.3893548246991456	0	0.002013679828305137	0
2.65	16.566354704493	676.5125805801365	-29.17251461150743	0.7054906773158696	0.01038340430110678	0.5610988706661372	0	1.780245843636265	0	0.1628549254807095	-4.520878862789175	0.2729085640076008	1.038945633921403	0.01038340430110678	0.3884482053242578	0	0.003015494834101795	0
2.655	20.10166595887335	680.9163195290625	-29.64992030645181	0.6998557600599495	0.01038340430110678	0.5612518930427627	0	1.771300173318628	0	0.2283913701879145	-5.596657354643526	0.3055732519972061	1.047696901148296	0.01038340430110678	0.387659554956556	0	0.004068936932774214	0
2.66	23.75860334883876	685.1864000339672	-30.14930688750054	0.694243231420546	0.01038340430110678	0.5613964043254676	0	1.756763318671761	0	0.30171951051712	-6.763966958933054	0.3357466583296684	1.055819647334301	0.01038340430110678	0.3869993105277776	0	0.0051639037490262	0
2.665	27.52712013389888	689.3108679101647	-30.65763881957549	0.6886530176313839	0.01038340430110678	0.5615270549953763	0	1.73609697012493	0	0.3824706336582143	-8.004540695350443	0.3614292933294472	1.063258679109372	0.01038340430110678	0.38647763597391	0	0.006285092117080171	0
2.67	31.39504006485939	693.2712456545405	-31.16228330751773	0.683084636260622	0.01038340430110678	0.5616385284315598	0	1.708706054921211	0	0.4698866149785219	-9.291427078998254	0.3801957110728651	1.06995794886231	0.01038340430110678	0.3861044249881273	0	0.007410606280451648	0
2.675	35.34885256049147	697.0414923189528	-31.65158865416694	0.6775372712160758	0.01038340430110678	0.5617256577797913	0	1.673972415884889	0	0.5627202187473487	-10.58743272904377	0.3891632146700843	1.07586087351019	0.01038340430110678	0.3858892876714891	0	0.008510536309043082	0
2.68	39.37458462822256	700.5872345731823	-32.11534941673337	0.6720098388140235	0.01038340430110678	0.5617835434536151	0	1.63129251213192	0	0.6591286641337037	-11.84351734649067	0.3849697008109807	1.080910808395577	0.01038340430110678	0.3858415087716386	0	0.009545536048932379	0
